<?xml version="1.0" encoding="utf-8"?>
<!-- Generator: Adobe Illustrator 23.0.1, SVG Export Plug-In . SVG Version: 6.00 Build 0)  -->
<svg version="1.1" id="Layer_1" xmlns="http://www.w3.org/2000/svg" xmlns:xlink="http://www.w3.org/1999/xlink" x="0px" y="0px"
	 viewBox="0 0 1224 1024" style="enable-background:new 0 0 1224 1024;" xml:space="preserve">
<g>
	<polygon points="233.16,150.84 233.16,14.62 187.76,14.62 187.76,105.43 142.35,105.43 142.35,150.84 	"/>
	<polygon points="6.13,14.62 6.13,105.43 51.54,105.43 51.54,60.03 96.94,60.03 96.94,14.62 	"/>
	<rect x="96.94" y="60.03" width="45.41" height="45.41"/>
	<polygon points="96.94,332.46 142.35,332.46 142.35,287.06 187.76,287.06 187.76,332.46 142.35,332.46 142.35,377.87 96.94,377.87 
		96.94,423.28 187.76,423.28 187.76,468.68 233.16,468.68 233.16,241.65 187.76,241.65 187.76,196.25 142.35,196.25 142.35,150.84 
		6.13,150.84 6.13,196.25 96.94,196.25 96.94,241.65 51.54,241.65 51.54,287.06 96.94,287.06 	"/>
	<rect x="6.13" y="287.06" width="45.41" height="90.81"/>
	<polyline points="189.26,741.12 187.76,650.31 233.16,650.31 233.16,514.09 187.76,514.09 187.76,468.68 142.35,468.68 
		142.35,514.09 96.94,514.09 96.94,604.9 142.35,604.9 142.35,695.71 51.54,695.71 51.54,650.31 96.94,650.31 96.94,604.9 
		51.54,604.9 51.54,514.09 6.13,514.09 6.13,741.12 51.54,741.12 51.54,786.52 187.76,786.52 187.76,831.93 51.54,831.93 
		51.54,786.52 6.13,786.52 6.13,877.34 51.54,877.34 51.54,922.74 6.13,922.74 6.13,968.15 96.94,968.15 96.94,922.74 
		142.35,922.74 142.35,968.15 233.16,968.15 233.16,922.74 187.76,922.74 187.76,877.34 233.16,877.34 233.16,741.12 	"/>
	<polygon points="96.94,423.28 6.13,423.28 6.13,468.68 51.54,468.68 51.54,514.09 96.94,514.09 	"/>
</g>
<g>
	<path d="M1020.89,901.48c0,0-42.21,1.64-167.14-6.69c2.82,0.31-6.04-1.38-8.51,0c-2.18,1.22-2.81,3.95-3.14,5.49
		c-6.65,31.53-6.79,45.59-6.79,45.59c0,10.66-3.01,16.33,0.69,20.13c2.73,2.8,6.81,2.95,9,3c27.48,0.62,67.94-0.66,75.06-0.85
		c1.43-0.04,3.93-0.08,8.94-0.15c31.89-0.47,54.96,0,62,0c0,0,93.35,0.02,166.4-13.62c9.99-1.86,25.5-5.14,36.35-17.57
		c7.54-8.64,12.13-20.81,14.66-27.63c3.01-8.13,4.73-15.15,5.75-20.07c0.95-6.43,1.89-12.86,2.84-19.28
		c-41.13,11.11-82.57,21.49-124.74,25.89C1081.13,896.88,1055.18,900.14,1020.89,901.48z"/>
	<path d="M1214.53,825.75c0,0-3.27-20.45-14.55-37.04c-9.23-13.58-21.14-18.18-62.44-32.97c-77.15-27.63-71.88-24.55-79.46-28.38
		c-20.07-10.14-42.14-15.85-62.43-25.54c-3.86-1.84-16.18-7.8-22.7-2.84c-2.55,1.94-2.03,3.89-5.68,11.35
		c-1.38,2.81-5.02,10.15-11.35,17.03c-4.27,4.63-8.01,7.17-14.19,11.35c-6.96,4.71-10.93,7.34-17.03,8.51
		c-2.49,0.48-6.51,1.21-11.35,0c-6.87-1.72-14.89-7.23-14.19-11.35c0.79-4.65,12.26-2.59,25.54-11.35
		c6.36-4.19,9.98-8.72,14.19-14.19c8.81-11.46,15.66-20.16,14.19-31.22c-1.2-9.02-6.82-15.02-11.35-19.87
		c-3.65-3.9-9.11-9.74-14.19-8.51c-2.3,0.55-2.59,2.09-8.51,8.51c-1.92,1.88-4.9,4.83-8.51,8.51c-8.16,8.33-8.33,9.02-11.35,11.35
		c-6.39,4.94-14.19,8.51-14.19,8.51c0,0-10.22,4.1-20.59,5.47c-1.02,0.13-1.57,0.18-2.11,0.2c-3.22,0.13-6.7-0.54-11.35-2.84
		c-6.36-3.14-11.42-5.64-11.35-8.51c0.1-4.15,10.73-4.77,25.54-11.35c1.81-0.81,19.4-8.86,34.05-25.54
		c7.88-8.97,10.35-15.43,10.02-21.45c-0.15-2.77-0.87-5-1.5-6.93c-2.62-8.04-7.4-13.01-11.35-17.03c-3.6-3.66-5.41-6.31-8.42-6.36
		c-1.22-0.02-2.16,0.34-2.93,0.68c-5.84,2.54-9.98,7.1-11.35,8.51c-1.63,1.68-5.81,3.95-14.19,8.51
		c-6.53,3.56-16.05,8.51-28.38,14.19c-2.95,1.22-7.9,2.84-14.19,2.84c-6.43,0-11.06-1.69-14.19-2.84c-3.66-1.34-5.11-2.39-5.68-2.84
		c-2.45-1.94-5.68-5.69-5.68-8.51c0.01-6.15,15.39-8.93,34.05-17.03c17.17-7.44,30.21-18.36,36.89-25.54
		c4.16-4.47,15.11-17.65,19.87-59.6c5.21-45.95-1.59-84.49-8.51-110.68c-9.71-36.72-27.95-81.3-39.73-79.46
		c-4.28,0.67-3.68,6.84-14.19,19.87c-9.08,11.25-18.6,17.88-25.54,22.7c-6.27,4.36-14.79,9.56-25.54,14.19
		c-27.39,7.63-44.87,6.21-53.92-2.84c0,0,0,0,0,0c-2.84-2.84-5.68-5.68-8.51-8.51c-2.84-2.84-5.68-5.68-8.51-8.51
		c-3.2-3.55-8.32-9.41-14.19-17.03c-6.45-8.37-8.13-11.53-19.87-28.38c-8.06-11.57-8.27-11.18-16.13-22.66
		c-10.12-14.77-17.01-26.79-17.92-28.42c-14.78-26.47-0.74-87.75,36.89-136.22c31.45-40.5,64.26-52.55,59.6-73.78
		c-2.87-13.06-18.06-21.27-31.22-28.38c-24.23-13.09-46.87-11.67-51.08-11.35c-27.04,2.06-45.51,16.13-53.92,22.7
		c-11.6,9.08-11.87,13.21-47.65,52.43c-3.38,3.71-7.94,8.43-13.36,14.56c-26.4,29.81-50.88,61.52-76.9,91.72
		c-7.88,9.15-5.07,11.85,3.75,16.79c33.68,18.88,65.14,40.81,93.28,68.68c50.88,50.39,86.92,109.07,100.95,181.74
		c1.6,18.73,1.77,37.46-0.13,56.18c-2.2,8.64-4.13,17.36-6.64,25.9c-10.38,35.27-31.56,61.62-61.23,80.58
		c-12.72,8.13-23.42,4.65-33.48-10.64c-1.38-2.1-4.09-6.49-2.51-9.11c0.48-0.79,1.19-1.16,1.35-1.24
		c3.35-1.85,34.38-29.57,49.67-64.36c13.31-30.29,11.21-58.03,9.93-74.7c-2.42-31.37-12.19-53.77-19.87-70.95
		c-14.78-33.09-32.18-53.03-62.43-87.97c-15.8-18.25-28.46-30.77-45.41-42.57c-19.45-13.55-36.7-25.44-53.92-19.87
		c-13.04,4.22-24.83,18.03-22.7,28.38c1.77,8.64,11.51,6.52,39.73,25.54c9.91,6.68,21.42,15.51,33.09,27.39
		c0.4,0.41,0.74,0.75,0.96,0.99c25.18,25.97,42.57,51.08,42.57,51.08c13.95,20.17,24.67,35.67,32.12,59.55
		c3.67,11.77,8.5,27.78,7,49c-1.89,26.7-12.6,44.66-16,50c-6.76,10.63-16.52,25.97-33,28c-6.39,0.79-11.9-0.66-15.66-2.08
		c0,0,0,0,0,0c0,0,0.01,0,0.01,0c0,0,0,0,0,0c-0.01-0.01-4.45-3.34-11.35-8.51c1.47-3.13,2.32-4.93,2.32-4.94
		c0,0-2.33,4.94-2.32,4.94c0,0,0-0.01,0-0.01c8.75-17.1,21.6-49.04,17.03-87.97c-2.83-24.1-11.26-41.84-17.03-53.92
		c-2.85-5.97-16.55-33.94-45.41-62.43c-10.72-10.58-26.59-24.26-48.24-36.89c-1.34-0.55-16.92-6.64-31.22,2.84
		c-0.64,0.42-15.43,10.5-14.19,22.7c1.39,13.63,21.27,15,48.24,34.05c28.05,19.82,42.2,43.54,48.24,53.92
		c8.86,15.22,18.17,31.69,17.03,53.92c-0.7,13.64-5.08,24.45-8.51,31.22c0,0.03-0.01,0.07-0.01,0.1L319.49,385.44
		c-0.63-0.5-1.21-1.06-1.73-1.66l-0.38-0.37c-1.51-0.35-3.07-0.95-4.67-1.92c-7.3-4.43-11.53-3.92-16.3,1.13
		c-2.07,2.19-4.2,4.17-6.5,5.78l-57.65,80.71v45.41l322.74,318.75c8.96,9.16,17.94,18.29,26.98,27.35
		c17.11,17.15,33.06,35.71,51.98,50.64l58.03,57.32h115.62c1.59-0.23,4.09-0.83,6.37-2.61c4.59-3.6,5.27-9.74,5.6-12.59
		c2.5-21.18,5.92-42.24,8.25-63.44c1.5-13.65,7.23-16.53,20.06-14.76c4.83,0.67,35.51,3.71,96.94,9.28
		c6.96,0.63,24.82,2.08,47.98,1.83c16.16-0.17,29.66-1.12,39.34-2.01c28.2-1.77,59.44-5.56,93.24-11.05
		c30.87-5.01,61.47-11.73,91.62-21.32C1216.18,843.18,1215.35,834.46,1214.53,825.75z"/>
</g>
<path d="M1586-238"/>
</svg>
