<svg height='300px' width='300px'  fill="#000000" xmlns="http://www.w3.org/2000/svg" xmlns:xlink="http://www.w3.org/1999/xlink" version="1.1" x="0px" y="0px" viewBox="0 0 16 16" enable-background="new 0 0 16 16" xml:space="preserve"><g><path d="M0,12c0,0.552,0.448,1,1,1h14c0.552,0,1-0.448,1-1v-1H0V12z"></path><path d="M16.024,10c0.011-0.903-0.114-2.676-1.185-3.577L10.815,10H16.024z"></path><path d="M0.155,6.902C0.107,6.883,0.05,6.86,0,6.841V10h3.135C2.464,7.809,2.328,7.756,0.155,6.902z"></path><path d="M4.179,10h5.13l4.584-4.074l-2.627-0.985L9.354,6.854C9.256,6.951,9.128,7,9,7S8.744,6.951,8.646,6.854   c-0.195-0.195-0.195-0.512,0-0.707l1.591-1.591l-0.79-0.296L7.354,6.354C7.256,6.451,7.128,6.5,7,6.5S6.744,6.451,6.646,6.354   c-0.195-0.195-0.195-0.512,0-0.707L8.42,3.873L6.176,3.032c-0.17-0.064-0.362-0.031-0.5,0.088C4.109,4.454,3.072,4.126,1.814,3.111   C1.725,3.039,1.614,3,1.5,3h-1C0.224,3,0,3.224,0,3.5v2.265c0.184,0.073,0.359,0.142,0.521,0.206C3.003,6.946,3.306,7.145,4.179,10   z"></path></g></svg>