<svg xmlns="http://www.w3.org/2000/svg" viewBox="0 0 300 185.28"><path id="theme-inner-path" fill="none" d="M277.74,204.06c2.3,4.12,4.76,11.89,2.74,15.51-1.35,2.42-5.84,4-12.35,4.29H224.56v-19H205.77v19h-16v-19H171v19h-16v-19H136.27v19H72.44c-14.17-.07-45.59-4.08-52.23-16.11a12,12,0,0,1-.37-10.53c2.52-5.18,9.93-9,20.87-10.73,33.92-5.44,122.7-42.87,126.46-44.46l5.73-2.42V79.22a21.75,21.75,0,0,1,.15-2.76c12.69,1.12,53.84,20.12,81.35,34.41,26.73,47.29,24.85,79.46,23.28,84l-2.59,4.4Z" transform="translate(0 -57.36)"/><path id="theme-outer-path" d="M296,198.74c2.81,6.41,6.85,19.13.9,29.89-4.79,8.68-14.27,13.39-28.18,14H72.41c-5.6,0-54.88-.87-68.64-25.83A30.73,30.73,0,0,1,3,189c3.74-7.66,12.8-17.52,34.78-21,27-4.33,96-32.38,116.38-40.82V79.22c0-20.8,13.44-21.86,16.13-21.86a15.14,15.14,0,0,1,3,.3c21.56,1.24,80.48,31.65,92.29,37.85L268,96.77l1.35,2.35C295.91,145,299.76,182.78,296,198.74Zm-15.55,20.83c2-3.62-.44-11.39-2.74-15.51l-2.65-4.75,2.59-4.4c1.57-4.58,3.45-36.75-23.28-84-27.51-14.29-68.66-33.29-81.35-34.41a21.75,21.75,0,0,0-.15,2.76v60.39L167.17,142c-3.76,1.59-92.54,39-126.46,44.46-10.94,1.75-18.35,5.55-20.87,10.73a12,12,0,0,0,.37,10.53c6.64,12,38.06,16,52.23,16.11h63.83v-19h18.79v19h16v-19h18.79v19h16v-19h18.79v19h43.57C274.64,223.54,279.13,222,280.48,219.57Z" transform="translate(0 -57.36)"/></svg>