<svg height='300px' width='300px' xmlns="http://www.w3.org/2000/svg" xmlns:xlink="http://www.w3.org/1999/xlink"
     version="1.1" x="0px" y="0px" viewBox="0 0 64 64" style="enable-background:new 0 0 64 64;" xml:space="preserve"><style type="text/css">
	.st0{display:none;}
	.st1{display:inline;}
	.st2{fill:none;stroke:#000000;stroke-width:0.1;stroke-miterlimit:10;}
</style>
    <g class="st0"><g class="st1"><rect x="2" y="2" class="st2" width="60" height="60"></rect><line class="st2" x1="32"
                                                                                                    y1="2" x2="32"
                                                                                                    y2="62"></line><line
            class="st2" x1="62" y1="32" x2="2" y2="32"></line><line class="st2" x1="2" y1="2" x2="62" y2="62"></line><rect
            x="10" y="10" class="st2" width="44" height="44"></rect><line class="st2" x1="62" y1="2" x2="2"
                                                                          y2="62"></line><line class="st2" x1="2"
                                                                                               y1="32" x2="32"
                                                                                               y2="2"></line><line
            class="st2" x1="32" y1="2" x2="62" y2="32"></line><line class="st2" x1="62" y1="32" x2="32" y2="62"></line><line
            class="st2" x1="32" y1="62" x2="2" y2="32"></line><circle class="st2" cx="32" cy="32" r="21"></circle></g></g>
    <polygon points="29.2,42 33.1,42 30.8,34 26.9,34 "></polygon>
    <polygon points="36.8,34 32.9,34 35.2,42 39.1,42 "></polygon>
    <polygon points="42.8,34 38.9,34 41.2,42 45.1,42 "></polygon>
    <polygon points="56.9,34 59.2,42 62,42 62,34 "></polygon>
    <polygon points="48.8,34 44.9,34 47.2,42 51.1,42 "></polygon>
    <polygon points="24.8,34 22,34 22,42 27.1,42 "></polygon>
    <polygon points="54.8,34 50.9,34 53.2,42 57.1,42 "></polygon>
    <polygon points="28,62 22,62 26,44 32,44 "></polygon>
    <polygon points="56,62 62,62 58,44 52,44 "></polygon>
    <circle cx="30" cy="28" r="4"></circle>
    <circle cx="54" cy="28" r="4"></circle>
    <path d="M2,2v52h19.7l0.4-2H4V14h48v8.4c0.6-0.2,1.3-0.4,2-0.4V2H2z M12,4h2v2h-2V4z M8,4h2v2H8V4z M4,4h2v2H4V4z M40,12H4V8h36V12z   M52,12H42V8h10V12z"></path>
    <polygon points="51.7,52 32.3,52 31.8,54 52.2,54 "></polygon></svg>